<svg width="305" height="305" viewBox="0 0 305 305" fill="none" xmlns="http://www.w3.org/2000/svg">
<circle cx="2.91402" cy="2.91402" r="2.91402" fill="#1C1E26" fill-opacity="0.1"/>
<circle cx="57.3087" cy="2.91402" r="2.91402" fill="#1C1E26" fill-opacity="0.1"/>
<circle cx="30.1113" cy="2.91402" r="2.91402" fill="#1C1E26" fill-opacity="0.1"/>
<circle cx="2.91402" cy="57.3089" r="2.91402" fill="#1C1E26" fill-opacity="0.1"/>
<circle cx="57.3087" cy="57.3089" r="2.91402" fill="#1C1E26" fill-opacity="0.1"/>
<circle cx="30.1113" cy="57.3089" r="2.91402" fill="#1C1E26" fill-opacity="0.1"/>
<circle cx="2.91402" cy="30.1115" r="2.91402" fill="#1C1E26" fill-opacity="0.1"/>
<circle cx="57.3087" cy="30.1115" r="2.91402" fill="#1C1E26" fill-opacity="0.1"/>
<circle cx="30.1113" cy="30.1115" r="2.91402" fill="#1C1E26" fill-opacity="0.1"/>
<circle cx="84.5062" cy="84.5064" r="2.91402" fill="#1C1E26" fill-opacity="0.1"/>
<circle cx="138.901" cy="84.5064" r="2.91402" fill="#1C1E26" fill-opacity="0.1"/>
<circle cx="111.704" cy="84.5064" r="2.91402" fill="#1C1E26" fill-opacity="0.1"/>
<circle cx="84.5062" cy="138.901" r="2.91402" fill="#1C1E26" fill-opacity="0.1"/>
<circle cx="138.901" cy="138.901" r="2.91402" fill="#1C1E26" fill-opacity="0.1"/>
<circle cx="111.704" cy="138.901" r="2.91402" fill="#1C1E26" fill-opacity="0.1"/>
<circle cx="84.5062" cy="111.704" r="2.91402" fill="#1C1E26" fill-opacity="0.1"/>
<circle cx="138.901" cy="111.704" r="2.91402" fill="#1C1E26" fill-opacity="0.1"/>
<circle cx="111.704" cy="111.704" r="2.91402" fill="#1C1E26" fill-opacity="0.1"/>
<circle cx="2.91402" cy="84.5064" r="2.91402" fill="#1C1E26" fill-opacity="0.1"/>
<circle cx="57.3087" cy="84.5064" r="2.91402" fill="#1C1E26" fill-opacity="0.1"/>
<circle cx="30.1113" cy="84.5064" r="2.91402" fill="#1C1E26" fill-opacity="0.1"/>
<circle cx="2.91402" cy="138.901" r="2.91402" fill="#1C1E26" fill-opacity="0.1"/>
<circle cx="57.3087" cy="138.901" r="2.91402" fill="#1C1E26" fill-opacity="0.1"/>
<circle cx="30.1113" cy="138.901" r="2.91402" fill="#1C1E26" fill-opacity="0.1"/>
<circle cx="2.91402" cy="111.704" r="2.91402" fill="#1C1E26" fill-opacity="0.1"/>
<circle cx="57.3087" cy="111.704" r="2.91402" fill="#1C1E26" fill-opacity="0.1"/>
<circle cx="30.1113" cy="111.704" r="2.91402" fill="#1C1E26" fill-opacity="0.1"/>
<circle cx="84.5062" cy="2.91402" r="2.91402" fill="#1C1E26" fill-opacity="0.1"/>
<circle cx="138.901" cy="2.91402" r="2.91402" fill="#1C1E26" fill-opacity="0.1"/>
<circle cx="111.704" cy="2.91402" r="2.91402" fill="#1C1E26" fill-opacity="0.1"/>
<circle cx="84.5062" cy="57.3089" r="2.91402" fill="#1C1E26" fill-opacity="0.1"/>
<circle cx="138.901" cy="57.3089" r="2.91402" fill="#1C1E26" fill-opacity="0.1"/>
<circle cx="111.704" cy="57.3089" r="2.91402" fill="#1C1E26" fill-opacity="0.1"/>
<circle cx="84.5062" cy="30.1115" r="2.91402" fill="#1C1E26" fill-opacity="0.1"/>
<circle cx="138.901" cy="30.1115" r="2.91402" fill="#1C1E26" fill-opacity="0.1"/>
<circle cx="111.704" cy="30.1115" r="2.91402" fill="#1C1E26" fill-opacity="0.1"/>
<circle cx="166.099" cy="166.099" r="2.91402" fill="#1C1E26" fill-opacity="0.1"/>
<circle cx="220.494" cy="166.099" r="2.91402" fill="#1C1E26" fill-opacity="0.1"/>
<circle cx="193.296" cy="166.099" r="2.91402" fill="#1C1E26" fill-opacity="0.1"/>
<circle cx="166.099" cy="220.494" r="2.91402" fill="#1C1E26" fill-opacity="0.1"/>
<circle cx="220.494" cy="220.494" r="2.91402" fill="#1C1E26" fill-opacity="0.1"/>
<circle cx="193.296" cy="220.494" r="2.91402" fill="#1C1E26" fill-opacity="0.1"/>
<circle cx="166.099" cy="193.296" r="2.91402" fill="#1C1E26" fill-opacity="0.1"/>
<circle cx="220.494" cy="193.296" r="2.91402" fill="#1C1E26" fill-opacity="0.1"/>
<circle cx="193.296" cy="193.296" r="2.91402" fill="#1C1E26" fill-opacity="0.1"/>
<circle cx="247.691" cy="247.691" r="2.91402" fill="#1C1E26" fill-opacity="0.1"/>
<circle cx="302.086" cy="247.691" r="2.91402" fill="#1C1E26" fill-opacity="0.1"/>
<circle cx="274.889" cy="247.691" r="2.91402" fill="#1C1E26" fill-opacity="0.1"/>
<circle cx="247.691" cy="302.086" r="2.91402" fill="#1C1E26" fill-opacity="0.1"/>
<circle cx="302.086" cy="302.086" r="2.91402" fill="#1C1E26" fill-opacity="0.1"/>
<circle cx="274.889" cy="302.086" r="2.91402" fill="#1C1E26" fill-opacity="0.1"/>
<circle cx="247.691" cy="274.889" r="2.91402" fill="#1C1E26" fill-opacity="0.1"/>
<circle cx="302.086" cy="274.889" r="2.91402" fill="#1C1E26" fill-opacity="0.1"/>
<circle cx="274.889" cy="274.889" r="2.91402" fill="#1C1E26" fill-opacity="0.1"/>
<circle cx="166.099" cy="247.691" r="2.91402" fill="#1C1E26" fill-opacity="0.1"/>
<circle cx="220.494" cy="247.691" r="2.91402" fill="#1C1E26" fill-opacity="0.1"/>
<circle cx="193.296" cy="247.691" r="2.91402" fill="#1C1E26" fill-opacity="0.1"/>
<circle cx="166.099" cy="302.086" r="2.91402" fill="#1C1E26" fill-opacity="0.1"/>
<circle cx="220.494" cy="302.086" r="2.91402" fill="#1C1E26" fill-opacity="0.1"/>
<circle cx="193.296" cy="302.086" r="2.91402" fill="#1C1E26" fill-opacity="0.1"/>
<circle cx="166.099" cy="274.889" r="2.91402" fill="#1C1E26" fill-opacity="0.1"/>
<circle cx="220.494" cy="274.889" r="2.91402" fill="#1C1E26" fill-opacity="0.1"/>
<circle cx="193.296" cy="274.889" r="2.91402" fill="#1C1E26" fill-opacity="0.1"/>
<circle cx="247.691" cy="166.099" r="2.91402" fill="#1C1E26" fill-opacity="0.1"/>
<circle cx="302.086" cy="166.099" r="2.91402" fill="#1C1E26" fill-opacity="0.1"/>
<circle cx="274.889" cy="166.099" r="2.91402" fill="#1C1E26" fill-opacity="0.1"/>
<circle cx="247.691" cy="220.494" r="2.91402" fill="#1C1E26" fill-opacity="0.1"/>
<circle cx="302.086" cy="220.494" r="2.91402" fill="#1C1E26" fill-opacity="0.1"/>
<circle cx="274.889" cy="220.494" r="2.91402" fill="#1C1E26" fill-opacity="0.1"/>
<circle cx="247.691" cy="193.296" r="2.91402" fill="#1C1E26" fill-opacity="0.1"/>
<circle cx="302.086" cy="193.296" r="2.91402" fill="#1C1E26" fill-opacity="0.1"/>
<circle cx="274.889" cy="193.296" r="2.91402" fill="#1C1E26" fill-opacity="0.1"/>
<circle cx="2.91402" cy="166.099" r="2.91402" fill="#1C1E26" fill-opacity="0.1"/>
<circle cx="57.3087" cy="166.099" r="2.91402" fill="#1C1E26" fill-opacity="0.1"/>
<circle cx="30.1113" cy="166.099" r="2.91402" fill="#1C1E26" fill-opacity="0.1"/>
<circle cx="2.91402" cy="220.494" r="2.91402" fill="#1C1E26" fill-opacity="0.1"/>
<circle cx="57.3087" cy="220.494" r="2.91402" fill="#1C1E26" fill-opacity="0.1"/>
<circle cx="30.1113" cy="220.494" r="2.91402" fill="#1C1E26" fill-opacity="0.1"/>
<circle cx="2.91402" cy="193.296" r="2.91402" fill="#1C1E26" fill-opacity="0.1"/>
<circle cx="57.3087" cy="193.296" r="2.91402" fill="#1C1E26" fill-opacity="0.1"/>
<circle cx="30.1113" cy="193.296" r="2.91402" fill="#1C1E26" fill-opacity="0.1"/>
<circle cx="84.5062" cy="247.691" r="2.91402" fill="#1C1E26" fill-opacity="0.1"/>
<circle cx="138.901" cy="247.691" r="2.91402" fill="#1C1E26" fill-opacity="0.1"/>
<circle cx="111.704" cy="247.691" r="2.91402" fill="#1C1E26" fill-opacity="0.1"/>
<circle cx="84.5062" cy="302.086" r="2.91402" fill="#1C1E26" fill-opacity="0.1"/>
<circle cx="138.901" cy="302.086" r="2.91402" fill="#1C1E26" fill-opacity="0.1"/>
<circle cx="111.704" cy="302.086" r="2.91402" fill="#1C1E26" fill-opacity="0.1"/>
<circle cx="84.5062" cy="274.889" r="2.91402" fill="#1C1E26" fill-opacity="0.1"/>
<circle cx="138.901" cy="274.889" r="2.91402" fill="#1C1E26" fill-opacity="0.1"/>
<circle cx="111.704" cy="274.889" r="2.91402" fill="#1C1E26" fill-opacity="0.1"/>
<circle cx="2.91402" cy="247.691" r="2.91402" fill="#1C1E26" fill-opacity="0.1"/>
<circle cx="57.3087" cy="247.691" r="2.91402" fill="#1C1E26" fill-opacity="0.1"/>
<circle cx="30.1113" cy="247.691" r="2.91402" fill="#1C1E26" fill-opacity="0.1"/>
<circle cx="2.91402" cy="302.086" r="2.91402" fill="#1C1E26" fill-opacity="0.1"/>
<circle cx="57.3087" cy="302.086" r="2.91402" fill="#1C1E26" fill-opacity="0.1"/>
<circle cx="30.1113" cy="302.086" r="2.91402" fill="#1C1E26" fill-opacity="0.1"/>
<circle cx="2.91402" cy="274.889" r="2.91402" fill="#1C1E26" fill-opacity="0.1"/>
<circle cx="57.3087" cy="274.889" r="2.91402" fill="#1C1E26" fill-opacity="0.1"/>
<circle cx="30.1113" cy="274.889" r="2.91402" fill="#1C1E26" fill-opacity="0.1"/>
<circle cx="84.5062" cy="166.099" r="2.91402" fill="#1C1E26" fill-opacity="0.1"/>
<circle cx="138.901" cy="166.099" r="2.91402" fill="#1C1E26" fill-opacity="0.1"/>
<circle cx="111.704" cy="166.099" r="2.91402" fill="#1C1E26" fill-opacity="0.1"/>
<circle cx="84.5062" cy="220.494" r="2.91402" fill="#1C1E26" fill-opacity="0.1"/>
<circle cx="138.901" cy="220.494" r="2.91402" fill="#1C1E26" fill-opacity="0.1"/>
<circle cx="111.704" cy="220.494" r="2.91402" fill="#1C1E26" fill-opacity="0.1"/>
<circle cx="84.5062" cy="193.296" r="2.91402" fill="#1C1E26" fill-opacity="0.1"/>
<circle cx="138.901" cy="193.296" r="2.91402" fill="#1C1E26" fill-opacity="0.1"/>
<circle cx="111.704" cy="193.296" r="2.91402" fill="#1C1E26" fill-opacity="0.1"/>
<circle cx="166.099" cy="2.91402" r="2.91402" fill="#1C1E26" fill-opacity="0.1"/>
<circle cx="220.494" cy="2.91402" r="2.91402" fill="#1C1E26" fill-opacity="0.1"/>
<circle cx="193.296" cy="2.91402" r="2.91402" fill="#1C1E26" fill-opacity="0.1"/>
<circle cx="166.099" cy="57.3089" r="2.91402" fill="#1C1E26" fill-opacity="0.1"/>
<circle cx="220.494" cy="57.3089" r="2.91402" fill="#1C1E26" fill-opacity="0.1"/>
<circle cx="193.296" cy="57.3089" r="2.91402" fill="#1C1E26" fill-opacity="0.1"/>
<circle cx="166.099" cy="30.1115" r="2.91402" fill="#1C1E26" fill-opacity="0.1"/>
<circle cx="220.494" cy="30.1115" r="2.91402" fill="#1C1E26" fill-opacity="0.1"/>
<circle cx="193.296" cy="30.1115" r="2.91402" fill="#1C1E26" fill-opacity="0.1"/>
<circle cx="247.691" cy="84.5064" r="2.91402" fill="#1C1E26" fill-opacity="0.1"/>
<circle cx="302.086" cy="84.5064" r="2.91402" fill="#1C1E26" fill-opacity="0.1"/>
<circle cx="274.889" cy="84.5064" r="2.91402" fill="#1C1E26" fill-opacity="0.1"/>
<circle cx="247.691" cy="138.901" r="2.91402" fill="#1C1E26" fill-opacity="0.1"/>
<circle cx="302.086" cy="138.901" r="2.91402" fill="#1C1E26" fill-opacity="0.1"/>
<circle cx="274.889" cy="138.901" r="2.91402" fill="#1C1E26" fill-opacity="0.1"/>
<circle cx="247.691" cy="111.704" r="2.91402" fill="#1C1E26" fill-opacity="0.1"/>
<circle cx="302.086" cy="111.704" r="2.91402" fill="#1C1E26" fill-opacity="0.1"/>
<circle cx="274.889" cy="111.704" r="2.91402" fill="#1C1E26" fill-opacity="0.1"/>
<circle cx="166.099" cy="84.5064" r="2.91402" fill="#1C1E26" fill-opacity="0.1"/>
<circle cx="220.494" cy="84.5064" r="2.91402" fill="#1C1E26" fill-opacity="0.1"/>
<circle cx="193.296" cy="84.5064" r="2.91402" fill="#1C1E26" fill-opacity="0.1"/>
<circle cx="166.099" cy="138.901" r="2.91402" fill="#1C1E26" fill-opacity="0.1"/>
<circle cx="220.494" cy="138.901" r="2.91402" fill="#1C1E26" fill-opacity="0.1"/>
<circle cx="193.296" cy="138.901" r="2.91402" fill="#1C1E26" fill-opacity="0.1"/>
<circle cx="166.099" cy="111.704" r="2.91402" fill="#1C1E26" fill-opacity="0.1"/>
<circle cx="220.494" cy="111.704" r="2.91402" fill="#1C1E26" fill-opacity="0.1"/>
<circle cx="193.296" cy="111.704" r="2.91402" fill="#1C1E26" fill-opacity="0.1"/>
<circle cx="247.691" cy="2.91402" r="2.91402" fill="#1C1E26" fill-opacity="0.1"/>
<circle cx="302.086" cy="2.91402" r="2.91402" fill="#1C1E26" fill-opacity="0.1"/>
<circle cx="274.889" cy="2.91402" r="2.91402" fill="#1C1E26" fill-opacity="0.1"/>
<circle cx="247.691" cy="57.3089" r="2.91402" fill="#1C1E26" fill-opacity="0.1"/>
<circle cx="302.086" cy="57.3089" r="2.91402" fill="#1C1E26" fill-opacity="0.1"/>
<circle cx="274.889" cy="57.3089" r="2.91402" fill="#1C1E26" fill-opacity="0.1"/>
<circle cx="247.691" cy="30.1115" r="2.91402" fill="#1C1E26" fill-opacity="0.1"/>
<circle cx="302.086" cy="30.1115" r="2.91402" fill="#1C1E26" fill-opacity="0.1"/>
<circle cx="274.889" cy="30.1115" r="2.91402" fill="#1C1E26" fill-opacity="0.1"/>
<circle cx="247.691" cy="2.91402" r="2.91402" fill="#1C1E26" fill-opacity="0.1"/>
<circle cx="302.086" cy="2.91402" r="2.91402" fill="#1C1E26" fill-opacity="0.1"/>
<circle cx="274.889" cy="2.91402" r="2.91402" fill="#1C1E26" fill-opacity="0.1"/>
<circle cx="247.691" cy="57.3089" r="2.91402" fill="#1C1E26" fill-opacity="0.1"/>
<circle cx="302.086" cy="57.3089" r="2.91402" fill="#1C1E26" fill-opacity="0.1"/>
<circle cx="274.889" cy="57.3089" r="2.91402" fill="#1C1E26" fill-opacity="0.1"/>
<circle cx="247.691" cy="30.1115" r="2.91402" fill="#1C1E26" fill-opacity="0.1"/>
<circle cx="302.086" cy="30.1115" r="2.91402" fill="#1C1E26" fill-opacity="0.1"/>
<circle cx="274.889" cy="30.1115" r="2.91402" fill="#1C1E26" fill-opacity="0.1"/>
</svg>
