<svg width="194" height="345" viewBox="0 0 194 345" fill="none" xmlns="http://www.w3.org/2000/svg">
<g id="header-illustration" clip-path="url(#clip0_51_130)">
<g id="Clip path group">
<mask id="mask0_51_130" style="mask-type:luminance" maskUnits="userSpaceOnUse" x="0" y="0" width="194" height="345">
<g id="clip0_48_2">
<path id="Vector" d="M194 0H0V345H194V0Z" fill="white"/>
</g>
</mask>
<g mask="url(#mask0_51_130)">
<g id="headerIllustration 1">
<g id="Clip path group_2">
<g id="Mask group">
<mask id="mask1_51_130" style="mask-type:luminance" maskUnits="userSpaceOnUse" x="-39" y="0" width="276" height="345">
<g id="Group">
<g id="clip0_9_88">
<path id="Vector_2" d="M237 0H-39V345H237V0Z" fill="white"/>
</g>
</g>
</mask>
<g mask="url(#mask1_51_130)">
<g id="Group_2">
<g id="phone">
<path id="Vector_2_2" d="M150.673 323.7H47.7285C43.9772 323.7 40.2625 322.962 36.7967 321.526C33.3309 320.09 30.1818 317.986 27.5292 315.334C24.8766 312.681 22.7724 309.532 21.3368 306.066C19.9013 302.6 19.1624 298.886 19.1624 295.134V28.5661C19.171 20.9925 22.1834 13.7316 27.5387 8.37629C32.894 3.02096 40.1549 0.00857365 47.7285 0H150.673C158.246 0.00855016 165.507 3.02093 170.863 8.37625C176.218 13.7316 179.23 20.9925 179.239 28.5661V76.7125H181.013V112.187H179.239V295.134C179.239 302.71 176.229 309.976 170.872 315.333C165.515 320.691 158.249 323.7 150.673 323.7ZM47.7285 0.88712C40.3901 0.895406 33.3547 3.81424 28.1657 9.00326C22.9766 14.1923 20.0578 21.2277 20.0495 28.5661V295.134C20.0495 298.769 20.7654 302.368 22.1564 305.727C23.5473 309.085 25.5862 312.136 28.1564 314.706C30.7266 317.277 33.7779 319.315 37.1361 320.706C40.4943 322.097 44.0935 322.813 47.7284 322.813H150.673C158.014 322.813 165.054 319.897 170.245 314.706C175.436 309.516 178.352 302.475 178.352 295.135V111.3H180.126V77.5996H178.352V28.5661C178.344 21.2277 175.425 14.1923 170.236 9.00326C165.047 3.81424 158.011 0.895408 150.673 0.88712H47.7285Z" fill="#3F3D56"/>
<path id="Vector_3" d="M151.807 316.385H48.3689C42.6831 316.378 37.232 314.116 33.2115 310.096C29.1909 306.075 26.9293 300.624 26.9227 294.939V28.7623C26.9293 23.0765 29.1909 17.6254 33.2114 13.6049C37.232 9.58435 42.6831 7.32274 48.3689 7.31616H61.5766L61.3281 7.92692C60.7389 9.37478 60.5146 10.9452 60.6747 12.5002C60.8349 14.0551 61.3747 15.5468 62.2467 16.8442C63.1187 18.1415 64.2962 19.2047 65.6755 19.9402C67.0548 20.6757 68.5937 21.061 70.1569 21.0622H129.132C130.695 21.0609 132.234 20.6756 133.614 19.9401C134.993 19.2046 136.17 18.1414 137.042 16.8441C137.914 15.5467 138.454 14.055 138.614 12.5001C138.774 10.9452 138.55 9.37477 137.961 7.92692L137.712 7.31616H151.807C157.493 7.32276 162.944 9.58439 166.965 13.6049C170.985 17.6254 173.247 23.0765 173.253 28.7623V294.939C173.247 300.624 170.985 306.075 166.965 310.096C162.944 314.116 157.493 316.378 151.807 316.385ZM48.3689 8.20328C42.9182 8.20957 37.6926 10.3776 33.8384 14.2318C29.9842 18.086 27.8161 23.3117 27.8098 28.7623V294.939C27.8162 300.389 29.9843 305.615 33.8385 309.469C37.6927 313.323 42.9183 315.491 48.3689 315.497H151.807C157.258 315.491 162.483 313.323 166.338 309.469C170.192 305.615 172.36 300.389 172.366 294.939V28.7623C172.36 23.3117 170.192 18.0861 166.338 14.2319C162.483 10.3777 157.258 8.20959 151.807 8.20328H139.009C139.536 9.77073 139.682 11.4408 139.435 13.0758C139.189 14.7108 138.557 16.2638 137.593 17.6066C136.628 18.9493 135.357 20.0434 133.886 20.7985C132.415 21.5536 130.786 21.948 129.133 21.9493H70.1565C68.5031 21.9481 66.8736 21.5536 65.4026 20.7986C63.9316 20.0435 62.6613 18.9494 61.6964 17.6067C60.7316 16.2639 60.0999 14.7109 59.8535 13.0759C59.6071 11.4409 59.753 9.77076 60.2793 8.20328H48.3689Z" fill="#CCCCCC"/>
</g>
<g id="bottom-post-2">
<path id="Vector_4" d="M150.197 286.668H52.6744C51.2922 286.667 49.967 286.117 48.9896 285.139C48.0123 284.162 47.4625 282.837 47.4609 281.455V250.174C47.4625 248.792 48.0123 247.466 48.9896 246.489C49.967 245.512 51.2922 244.962 52.6744 244.96H150.197C151.579 244.962 152.904 245.512 153.882 246.489C154.859 247.466 155.409 248.792 155.41 250.174V281.455C155.409 282.837 154.859 284.162 153.882 285.139C152.904 286.117 151.579 286.667 150.197 286.668ZM52.6744 245.574C51.4548 245.575 50.2856 246.06 49.4232 246.923C48.5608 247.785 48.0757 248.954 48.0743 250.174V281.455C48.0757 282.674 48.5608 283.843 49.4232 284.706C50.2856 285.568 51.4548 286.053 52.6744 286.055H150.197C151.416 286.053 152.586 285.568 153.448 284.706C154.31 283.843 154.795 282.674 154.797 281.455V250.174C154.795 248.954 154.31 247.785 153.448 246.923C152.586 246.06 151.416 245.575 150.197 245.574H52.6744Z" fill="#CCCCCC"/>
<path id="Vector_5" d="M145.812 272.408H80.1834C79.5333 272.407 78.9101 272.148 78.4507 271.688C77.9913 271.228 77.7333 270.605 77.7333 269.955C77.7333 269.304 77.9913 268.681 78.4507 268.221C78.9101 267.761 79.5333 267.502 80.1834 267.501H145.812C146.462 267.501 147.086 267.76 147.546 268.22C148.007 268.68 148.265 269.304 148.265 269.955C148.265 270.605 148.007 271.229 147.546 271.689C147.086 272.149 146.462 272.408 145.812 272.408Z" fill="#E6E6E6"/>
<path id="Vector_6" d="M145.808 282.375H137.221C136.57 282.375 135.946 282.116 135.486 281.656C135.026 281.196 134.768 280.572 134.768 279.921C134.768 279.271 135.026 278.646 135.486 278.186C135.946 277.726 136.57 277.468 137.221 277.468H145.808C146.458 277.469 147.081 277.728 147.541 278.188C148 278.648 148.258 279.271 148.258 279.921C148.258 280.571 148 281.195 147.541 281.655C147.081 282.115 146.458 282.374 145.808 282.375Z" fill="white"/>
<path id="Vector_7" d="M145.808 282.375H137.221C136.57 282.375 135.946 282.116 135.486 281.656C135.026 281.196 134.768 280.572 134.768 279.921C134.768 279.271 135.026 278.646 135.486 278.186C135.946 277.726 136.57 277.468 137.221 277.468H145.808C146.458 277.469 147.081 277.728 147.541 278.188C148 278.648 148.258 279.271 148.258 279.921C148.258 280.571 148 281.195 147.541 281.655C147.081 282.115 146.458 282.374 145.808 282.375Z" fill="#CCCCCC"/>
<path id="Vector_8" d="M114.224 264.128H80.1834C79.5327 264.128 78.9087 263.869 78.4486 263.409C77.9885 262.949 77.73 262.325 77.73 261.674C77.73 261.024 77.9885 260.399 78.4486 259.939C78.9087 259.479 79.5327 259.221 80.1834 259.221H114.224C114.874 259.222 115.497 259.481 115.957 259.941C116.416 260.401 116.674 261.024 116.674 261.674C116.674 262.324 116.416 262.948 115.957 263.408C115.497 263.868 114.874 264.127 114.224 264.128Z" fill="#E6E6E6"/>
<path id="Vector_9" d="M63.8065 275.014C68.8876 275.014 73.0067 270.895 73.0067 265.814C73.0067 260.733 68.8876 256.614 63.8065 256.614C58.7253 256.614 54.6063 260.733 54.6063 265.814C54.6063 270.895 58.7253 275.014 63.8065 275.014Z" fill="#E6E6E6"/>
</g>
<g id="bottom-post-1">
<path id="Vector_10" d="M150.197 228.562H52.6744C51.2922 228.56 49.967 228.01 48.9896 227.033C48.0123 226.056 47.4625 224.73 47.4609 223.348V192.067C47.4625 190.685 48.0123 189.36 48.9896 188.383C49.967 187.405 51.2922 186.856 52.6744 186.854H150.197C151.579 186.856 152.904 187.405 153.882 188.383C154.859 189.36 155.409 190.685 155.41 192.067V223.348C155.409 224.73 154.859 226.056 153.882 227.033C152.904 228.01 151.579 228.56 150.197 228.562ZM52.6744 187.467C51.4548 187.469 50.2856 187.954 49.4232 188.816C48.5608 189.679 48.0757 190.848 48.0743 192.067V223.348C48.0757 224.568 48.5608 225.737 49.4232 226.599C50.2856 227.462 51.4548 227.947 52.6744 227.948H150.197C151.416 227.947 152.586 227.462 153.448 226.599C154.31 225.737 154.795 224.568 154.797 223.348V192.067C154.795 190.848 154.31 189.679 153.448 188.816C152.586 187.954 151.416 187.469 150.197 187.467H52.6744Z" fill="#CCCCCC"/>
<path id="Vector_11" d="M145.812 214.301H80.1834C79.5333 214.301 78.9101 214.042 78.4507 213.582C77.9913 213.122 77.7333 212.498 77.7333 211.848C77.7333 211.198 77.9913 210.574 78.4507 210.114C78.9101 209.654 79.5333 209.395 80.1834 209.395H145.812C146.462 209.395 147.086 209.653 147.546 210.113C148.007 210.573 148.265 211.197 148.265 211.848C148.265 212.499 148.007 213.123 147.546 213.583C147.086 214.043 146.462 214.301 145.812 214.301Z" fill="#E6E6E6"/>
<path id="Vector_12" d="M145.808 224.268H137.221C136.57 224.268 135.946 224.01 135.486 223.55C135.026 223.09 134.768 222.465 134.768 221.815C134.768 221.164 135.026 220.54 135.486 220.08C135.946 219.62 136.57 219.361 137.221 219.361H145.808C146.458 219.362 147.081 219.621 147.541 220.081C148 220.541 148.258 221.165 148.258 221.815C148.258 222.465 148 223.088 147.541 223.548C147.081 224.008 146.458 224.267 145.808 224.268Z" fill="white"/>
<path id="Vector_13" d="M145.808 224.268H137.221C136.57 224.268 135.946 224.01 135.486 223.55C135.026 223.09 134.768 222.465 134.768 221.815C134.768 221.164 135.026 220.54 135.486 220.08C135.946 219.62 136.57 219.361 137.221 219.361H145.808C146.458 219.362 147.081 219.621 147.541 220.081C148 220.541 148.258 221.165 148.258 221.815C148.258 222.465 148 223.088 147.541 223.548C147.081 224.008 146.458 224.267 145.808 224.268Z" fill="#CCCCCC"/>
<path id="Vector_14" d="M63.8065 216.908C68.8876 216.908 73.0067 212.789 73.0067 207.708C73.0067 202.627 68.8876 198.508 63.8065 198.508C58.7253 198.508 54.6063 202.627 54.6063 207.708C54.6063 212.789 58.7253 216.908 63.8065 216.908Z" fill="#E6E6E6"/>
<path id="Vector_15" d="M114.224 206.021H80.1834C79.5327 206.021 78.9087 205.763 78.4486 205.303C77.9885 204.842 77.73 204.218 77.73 203.568C77.73 202.917 77.9885 202.293 78.4486 201.833C78.9087 201.373 79.5327 201.114 80.1834 201.114H114.224C114.874 201.115 115.497 201.374 115.957 201.834C116.416 202.294 116.674 202.918 116.674 203.568C116.674 204.218 116.416 204.841 115.957 205.301C115.497 205.761 114.874 206.02 114.224 206.021Z" fill="#E6E6E6"/>
</g>
<g id="top-post">
<path id="Vector_16" d="M150.197 83.9611H52.6744C51.2922 83.9596 49.967 83.4098 48.9896 82.4324C48.0123 81.455 47.4625 80.1299 47.4609 78.7476V47.4669C47.4625 46.0847 48.0123 44.7595 48.9896 43.7821C49.967 42.8047 51.2922 42.255 52.6744 42.2534H150.197C151.579 42.255 152.904 42.8047 153.882 43.7821C154.859 44.7595 155.409 46.0847 155.41 47.4669V78.7476C155.409 80.1299 154.859 81.455 153.882 82.4324C152.904 83.4098 151.579 83.9596 150.197 83.9611ZM52.6744 42.8668C51.4548 42.8681 50.2856 43.3532 49.4232 44.2156C48.5608 45.078 48.0757 46.2473 48.0743 47.4669V78.7476C48.0757 79.9672 48.5608 81.1365 49.4232 81.9989C50.2856 82.8613 51.4548 83.3464 52.6744 83.3478H150.197C151.416 83.3464 152.586 82.8613 153.448 81.9989C154.31 81.1365 154.795 79.9672 154.797 78.7476V47.4669C154.795 46.2473 154.31 45.078 153.448 44.2156C152.586 43.3532 151.416 42.8681 150.197 42.8668H52.6744Z" fill="#CCCCCC"/>
<path id="Vector_17" d="M114.224 61.4205H80.1834C79.5333 61.4196 78.9101 61.1608 78.4507 60.7008C77.9913 60.2408 77.7333 59.6172 77.7333 58.9671C77.7333 58.317 77.9913 57.6935 78.4507 57.2335C78.9101 56.7735 79.5333 56.5146 80.1834 56.5137H114.224C114.874 56.5146 115.497 56.7735 115.957 57.2335C116.416 57.6935 116.674 58.317 116.674 58.9671C116.674 59.6172 116.416 60.2408 115.957 60.7008C115.497 61.1608 114.874 61.4196 114.224 61.4205Z" fill="#E6E6E6"/>
<path id="Vector_18" d="M145.812 69.7007H80.1834C79.5333 69.6998 78.9101 69.441 78.4507 68.981C77.9913 68.521 77.7333 67.8974 77.7333 67.2473C77.7333 66.5972 77.9913 65.9737 78.4507 65.5137C78.9101 65.0537 79.5333 64.7948 80.1834 64.7939H145.812C146.134 64.7935 146.454 64.8566 146.752 64.9797C147.05 65.1028 147.32 65.2835 147.549 65.5113C147.777 65.7392 147.958 66.0098 148.081 66.3077C148.205 66.6056 148.268 66.9249 148.268 67.2473C148.268 67.5698 148.205 67.8891 148.081 68.187C147.958 68.4848 147.777 68.7554 147.549 68.9833C147.32 69.2112 147.05 69.3918 146.752 69.5149C146.454 69.638 146.134 69.7011 145.812 69.7007Z" fill="#E6E6E6"/>
<path id="Vector_19" d="M63.8065 72.3074C68.8876 72.3074 73.0067 68.1884 73.0067 63.1072C73.0067 58.0261 68.8876 53.907 63.8065 53.907C58.7253 53.907 54.6063 58.0261 54.6063 63.1072C54.6063 68.1884 58.7253 72.3074 63.8065 72.3074Z" fill="#E6E6E6"/>
<path id="Vector_20" d="M145.808 79.6676H137.221C136.899 79.6681 136.579 79.6049 136.281 79.4818C135.983 79.3587 135.712 79.1781 135.484 78.9502C135.256 78.7223 135.075 78.4517 134.952 78.1539C134.828 77.856 134.764 77.5367 134.764 77.2142C134.764 76.8918 134.828 76.5725 134.952 76.2746C135.075 75.9767 135.256 75.7061 135.484 75.4783C135.712 75.2504 135.983 75.0697 136.281 74.9466C136.579 74.8235 136.899 74.7604 137.221 74.7608H145.808C146.458 74.7617 147.081 75.0206 147.541 75.4806C148 75.9406 148.258 76.5641 148.258 77.2142C148.258 77.8643 148 78.4879 147.541 78.9479C147.081 79.4079 146.458 79.6667 145.808 79.6676Z" fill="white"/>
<path id="Vector_21" d="M145.808 79.6676H137.221C136.899 79.6681 136.579 79.6049 136.281 79.4818C135.983 79.3587 135.712 79.1781 135.484 78.9502C135.256 78.7223 135.075 78.4517 134.952 78.1539C134.828 77.856 134.764 77.5367 134.764 77.2142C134.764 76.8918 134.828 76.5725 134.952 76.2746C135.075 75.9767 135.256 75.7061 135.484 75.4783C135.712 75.2504 135.983 75.0697 136.281 74.9466C136.579 74.8235 136.899 74.7604 137.221 74.7608H145.808C146.458 74.7617 147.081 75.0206 147.541 75.4806C148 75.9406 148.258 76.5641 148.258 77.2142C148.258 77.8643 148 78.4879 147.541 78.9479C147.081 79.4079 146.458 79.6667 145.808 79.6676Z" fill="#CCCCCC"/>
</g>
<g id="main-post">
<g id="main-post-background">
<path id="Vector_23" d="M160.529 173H39.4716C37.7558 172.998 36.1109 172.022 34.8976 170.288C33.6844 168.554 33.0019 166.203 33 163.75V108.25C33.0019 105.797 33.6844 103.447 34.8976 101.712C36.1109 99.9782 37.7558 99.0028 39.4716 99H160.529C162.244 99.0028 163.889 99.9782 165.103 101.712C166.316 103.447 166.998 105.797 167 108.25V163.75C166.998 166.203 166.316 168.554 165.103 170.288C163.889 172.022 162.244 172.998 160.529 173ZM39.4716 100.088C37.9577 100.091 36.5062 100.951 35.4357 102.481C34.3652 104.011 33.7631 106.086 33.7614 108.25V163.75C33.7631 165.915 34.3652 167.989 35.4357 169.519C36.5062 171.049 37.9577 171.91 39.4716 171.912H160.529C162.043 171.91 163.494 171.049 164.565 169.519C165.634 167.989 166.237 165.915 166.239 163.75V108.25C166.237 106.086 165.634 104.011 164.565 102.481C163.494 100.951 162.043 100.091 160.529 100.088H39.4716Z" fill="white"/>
<path id="Vector_24" d="M39.4716 100.088C37.9577 100.091 36.5062 100.951 35.4357 102.481C34.3652 104.011 33.7631 106.086 33.7614 108.25V163.75C33.7631 165.915 34.3652 167.989 35.4357 169.519C36.5062 171.049 37.9577 171.91 39.4716 171.912H160.529C162.043 171.91 163.494 171.049 164.565 169.519C165.634 167.989 166.237 165.915 166.239 163.75V108.25C166.237 106.086 165.634 104.011 164.565 102.481C163.494 100.951 162.043 100.091 160.529 100.088H39.4716Z" fill="white"/>
</g>
<path id="Vector_23_2" d="M184.631 173.328H9.36932C6.88528 173.326 4.50377 172.338 2.74729 170.581C0.990807 168.825 0.00279531 166.443 0 163.959V107.743C0.00279531 105.259 0.990807 102.878 2.74729 101.121C4.50377 99.3646 6.88528 98.3766 9.36932 98.3738H184.631C187.115 98.3766 189.496 99.3646 191.253 101.121C193.009 102.878 193.997 105.259 194 107.743V163.959C193.997 166.443 193.009 168.825 191.253 170.581C189.496 172.338 187.115 173.326 184.631 173.328ZM9.36932 99.4761C7.17752 99.4786 5.07621 100.35 3.52638 101.9C1.97654 103.45 1.10475 105.551 1.10227 107.743V163.959C1.10475 166.151 1.97654 168.252 3.52638 169.802C5.07621 171.352 7.17752 172.224 9.36932 172.226H184.631C186.823 172.224 188.924 171.352 190.474 169.802C192.023 168.252 192.895 166.151 192.898 163.959V107.743C192.895 105.551 192.023 103.45 190.474 101.9C188.924 100.35 186.823 99.4786 184.631 99.4761H9.36932Z" fill="#3F3D56"/>
<path id="Vector_24_2" d="M29.3752 152.385C38.5067 152.385 45.9092 144.983 45.9092 135.851C45.9092 126.72 38.5067 119.317 29.3752 119.317C20.2436 119.317 12.8411 126.72 12.8411 135.851C12.8411 144.983 20.2436 152.385 29.3752 152.385Z" fill="var(--primary-color)"/>
<path id="Vector_25" d="M176.75 147.701H58.8068C57.6374 147.701 56.516 147.236 55.6891 146.409C54.8622 145.582 54.3977 144.461 54.3977 143.291C54.3977 142.122 54.8622 141.001 55.6891 140.174C56.516 139.347 57.6374 138.882 58.8068 138.882H176.75C177.919 138.882 179.041 139.347 179.868 140.174C180.695 141.001 181.159 142.122 181.159 143.291C181.159 144.461 180.695 145.582 179.868 146.409C179.041 147.236 177.919 147.701 176.75 147.701Z" fill="var(--primary-color)"/>
<path id="Vector_26" d="M119.983 132.82H58.8068C57.6374 132.82 56.516 132.355 55.6891 131.528C54.8622 130.702 54.3977 129.58 54.3977 128.411C54.3977 127.241 54.8622 126.12 55.6891 125.293C56.516 124.466 57.6374 124.002 58.8068 124.002H119.983C121.152 124.002 122.274 124.466 123.101 125.293C123.927 126.12 124.392 127.241 124.392 128.411C124.392 129.58 123.927 130.702 123.101 131.528C122.274 132.355 121.152 132.82 119.983 132.82Z" fill="var(--primary-color)"/>
<path id="Vector_27" d="M176.743 165.612H161.312C160.142 165.612 159.021 165.148 158.194 164.321C157.367 163.494 156.902 162.373 156.902 161.203C156.902 160.034 157.367 158.913 158.194 158.086C159.021 157.259 160.142 156.794 161.312 156.794H176.743C177.322 156.794 177.896 156.908 178.431 157.13C178.966 157.351 179.452 157.676 179.861 158.086C180.27 158.495 180.595 158.981 180.817 159.516C181.038 160.051 181.152 160.624 181.152 161.203C181.152 161.782 181.038 162.356 180.817 162.891C180.595 163.426 180.27 163.912 179.861 164.321C179.452 164.731 178.966 165.055 178.431 165.277C177.896 165.498 177.322 165.612 176.743 165.612Z" fill="var(--font-color)"/>
<path id="Vector_28" d="M176.743 165.612H161.312C160.142 165.612 159.021 165.148 158.194 164.321C157.367 163.494 156.902 162.373 156.902 161.203C156.902 160.034 157.367 158.913 158.194 158.086C159.021 157.259 160.142 156.794 161.312 156.794H176.743C177.322 156.794 177.896 156.908 178.431 157.13C178.966 157.351 179.452 157.676 179.861 158.086C180.27 158.495 180.595 158.981 180.817 159.516C181.038 160.051 181.152 160.624 181.152 161.203C181.152 161.782 181.038 162.356 180.817 162.891C180.595 163.426 180.27 163.912 179.861 164.321C179.452 164.731 178.966 165.055 178.431 165.277C177.896 165.498 177.322 165.612 176.743 165.612Z" fill="var(--font-color)"/>
</g>
<g id="person">
<path id="Vector_29" d="M66.5677 172.561C66.3965 172.737 66.2117 172.899 66.015 173.046L67.1587 195.014L71.9155 197.449L69.1784 205.109L60.3383 201.616C59.6242 201.334 59.0208 200.827 58.6189 200.173C58.2169 199.519 58.038 198.752 58.1091 197.987L60.425 173.068C59.6672 172.503 59.0995 171.72 58.7973 170.824C58.4952 169.928 58.473 168.961 58.7337 168.053C58.9944 167.144 59.5256 166.336 60.2567 165.736C60.9878 165.137 61.8841 164.774 62.8264 164.696C63.7688 164.618 64.7124 164.829 65.5319 165.301C66.3514 165.773 67.0079 166.483 67.414 167.336C67.8201 168.19 67.9567 169.147 67.8055 170.081C67.6544 171.014 67.2226 171.879 66.5677 172.561Z" fill="#FFB8B8"/>
<path id="Vector_30" d="M113.757 172.561C113.928 172.737 114.113 172.899 114.309 173.046L113.166 195.014L108.409 197.449L111.146 205.109L119.986 201.616C120.7 201.334 121.304 200.827 121.705 200.173C122.107 199.519 122.286 198.752 122.215 197.987L119.899 173.068C120.657 172.503 121.225 171.72 121.527 170.824C121.829 169.928 121.851 168.961 121.591 168.053C121.33 167.144 120.799 166.336 120.068 165.736C119.337 165.137 118.44 164.774 117.498 164.696C116.556 164.618 115.612 164.829 114.792 165.301C113.973 165.773 113.317 166.483 112.91 167.336C112.504 168.19 112.368 169.147 112.519 170.081C112.67 171.014 113.102 171.879 113.757 172.561Z" fill="#FFB8B8"/>
<path id="Vector_31" d="M89.4471 339.68H94.8851L97.4719 318.705H89.4462L89.4471 339.68Z" fill="#FFB8B8"/>
<path id="Vector_32" d="M88.0599 337.904H98.7691C99.6653 337.904 100.553 338.081 101.381 338.423C102.209 338.766 102.962 339.269 103.595 339.903C104.229 340.537 104.732 341.289 105.075 342.117C105.418 342.945 105.594 343.832 105.594 344.729V344.951H88.0602L88.0599 337.904Z" fill="#2F2E41"/>
<path id="Vector_33" d="M67.7126 339.68H73.1506L75.7374 318.705H67.7117L67.7126 339.68Z" fill="#FFB8B8"/>
<path id="Vector_34" d="M66.3254 337.904H77.0347C77.931 337.904 78.8188 338.081 79.6469 338.423C80.4749 338.766 81.2273 339.269 81.861 339.903C82.4948 340.537 82.9975 341.289 83.3405 342.117C83.6834 342.945 83.86 343.832 83.86 344.729V344.951H66.3258L66.3254 337.904Z" fill="#2F2E41"/>
<path id="Vector_35" d="M90.5324 194.467C96.5491 194.467 101.427 189.589 101.427 183.572C101.427 177.556 96.5491 172.678 90.5324 172.678C84.5156 172.678 79.6381 177.556 79.6381 183.572C79.6381 189.589 84.5156 194.467 90.5324 194.467Z" fill="#FFB8B8"/>
<path id="Vector_36" d="M97.8584 335.153H87.7671C87.503 335.153 87.2414 335.1 86.9977 334.999C86.754 334.897 86.5329 334.748 86.3472 334.56C86.1616 334.372 86.0151 334.149 85.9162 333.904C85.8174 333.659 85.7681 333.397 85.7713 333.133L86.3577 285.214C86.3598 285.044 86.2967 284.879 86.1812 284.754C86.0657 284.629 85.9067 284.553 85.7368 284.542C85.567 284.531 85.3993 284.585 85.2681 284.693C85.137 284.802 85.0525 284.956 85.0319 285.125L79.1588 333.398C79.0995 333.882 78.8654 334.327 78.5004 334.651C78.1355 334.974 77.665 335.152 77.1775 335.153H66.9892C66.714 335.153 66.4417 335.096 66.1895 334.986C65.9373 334.876 65.7107 334.714 65.5238 334.512C65.3369 334.31 65.1938 334.072 65.1036 333.812C65.0133 333.552 64.9778 333.276 64.9992 333.001L71.7269 246.917L71.9098 246.897L104.125 243.418L99.8523 333.252C99.8285 333.764 99.6079 334.248 99.2365 334.602C98.8652 334.956 98.3716 335.153 97.8584 335.153Z" fill="#2F2E41"/>
<path id="Vector_37" d="M72.119 252.202C71.6015 252.201 71.1046 251.998 70.7335 251.638C70.3624 251.277 70.146 250.786 70.1301 250.269C69.9543 244.826 69.6529 225.992 73.1561 212.165C74.1122 208.387 76.2582 205.018 79.2771 202.555C82.2959 200.091 86.0272 198.665 89.9194 198.486C93.7505 198.276 97.5501 199.279 100.779 201.351C104.008 203.423 106.503 206.459 107.91 210.029C113.798 224.978 119.361 243.405 112.425 246.295C103.335 250.082 79.3699 251.771 72.2415 252.198C72.2005 252.201 72.1596 252.202 72.119 252.202Z" fill="var(--primary-color)"/>
<path id="Vector_38" d="M113.256 195.832L116.602 205.341C116.697 205.612 116.733 205.9 116.707 206.185C116.681 206.471 116.594 206.748 116.451 206.997C116.308 207.245 116.114 207.461 115.88 207.627C115.647 207.794 115.381 207.909 115.099 207.963L105.232 209.874C103.845 210.354 102.324 210.263 101.003 209.623C99.6826 208.983 98.6696 207.846 98.1865 206.46C97.7034 205.074 97.7896 203.553 98.4262 202.231C99.0627 200.908 100.198 199.892 101.582 199.405L110.442 194.729C110.696 194.595 110.975 194.518 111.262 194.502C111.548 194.486 111.834 194.531 112.101 194.636C112.368 194.741 112.61 194.902 112.809 195.108C113.008 195.314 113.161 195.561 113.256 195.832Z" fill="var(--primary-color)"/>
<path id="Vector_39" d="M68.2231 194.636C68.4901 194.531 68.7766 194.485 69.063 194.501C69.3493 194.517 69.6289 194.595 69.8825 194.729L78.7421 199.405C80.1266 199.892 81.2617 200.908 81.8982 202.23C82.5348 203.553 82.621 205.074 82.1379 206.46C81.6548 207.845 80.6418 208.983 79.3211 209.623C78.0004 210.263 76.4798 210.354 75.0926 209.874L65.2254 207.963C64.9438 207.909 64.6773 207.794 64.444 207.627C64.2107 207.461 64.0161 207.245 63.8734 206.997C63.7307 206.748 63.6434 206.471 63.6173 206.185C63.5912 205.9 63.627 205.612 63.7222 205.341L67.0685 195.832C67.1636 195.561 67.3159 195.314 67.5152 195.108C67.7145 194.901 67.9559 194.74 68.2231 194.636Z" fill="var(--primary-color)"/>
<path id="Vector_40" d="M94.7636 185.429C94.7064 184.04 95.0551 182.663 95.7673 181.469C96.4794 180.274 97.524 179.312 98.7736 178.702C102.085 176.992 104.166 173.346 103.254 170.016C102.087 165.754 96.2863 162.99 91.5861 164.456C90.314 164.907 89.0872 165.478 87.9219 166.159L84.8511 167.805C83.5393 168.462 82.2745 169.208 81.0657 170.039C79.2552 171.374 77.8361 173.17 76.9567 175.24C76.0774 177.31 75.77 179.578 76.0667 181.807C76.6714 186.14 79.509 190.114 83.3932 192.834C84.8787 193.945 86.5944 194.707 88.4138 195.066C90.2757 195.373 92.3483 195.024 93.7096 193.866C95.8371 192.057 95.6173 189.027 94.9292 186.496C94.8383 186.147 94.7828 185.79 94.7636 185.429Z" fill="#2F2E41"/>
</g>
</g>
</g>
</g>
</g>
</g>
</g>
</g>
</g>
<defs>
<clipPath id="clip0_51_130">
<rect width="194" height="345" fill="white"/>
</clipPath>
</defs>
</svg>
